<svg xmlns="http://www.w3.org/2000/svg" xmlns:xlink="http://www.w3.org/1999/xlink" width="139.421" height="40.118" viewBox="0 0 139.421 40.118">
  <defs>
    <clipPath id="clip-path">
      <rect id="Rectangle_222" data-name="Rectangle 222" width="139.421" height="40.118" fill="none"/>
    </clipPath>
  </defs>
  <g id="LOGO_PHILCO" data-name="LOGO PHILCO" transform="translate(69.71 20.059)">
    <g id="Group_1582" data-name="Group 1582" transform="translate(-69.71 -20.059)" clip-path="url(#clip-path)">
      <path id="Path_3190" data-name="Path 3190" d="M124.7,10.928a14.592,14.592,0,1,1-14.717,14.591A14.657,14.657,0,0,1,124.7,10.928m.23,8.227a6.438,6.438,0,1,0,.021,0m-21.436,0a6.344,6.344,0,0,1,4.251,1.634V11.6a14.821,14.821,0,0,0-4.48-.691,14.592,14.592,0,1,0,0,29.182,14.821,14.821,0,0,0,4.48-.691V30.606a6.343,6.343,0,0,1-4.25,1.633,6.553,6.553,0,0,1,.021-13.1M75.488,0h8.122V40.11H75.488ZM61.316,40.11h8.206V11.6H61.316Zm0-33.306h8.206V0H61.316ZM31.171,40.11V0h7.913V16.015s3.684-5.108,8.625-5.108,7.662,1.926,7.662,7.808V40.11H47.541V23.3a4,4,0,0,0-4.187-4.187c-4.312,0-4.187,4.417-4.187,4.417V40.11ZM0,40.11V0H14.256S27.089-.021,27.089,13.649,15.659,28.366,12.728,28.366H8.9V40.131ZM8.9,7.746v12.5s9.211,1,9.211-6.3S8.9,7.746,8.9,7.746" transform="translate(0 0)" fill="#fff" fill-rule="evenodd"/>
    </g>
  </g>
</svg>
